<svg width="2901" height="1435" xmlns="http://www.w3.org/2000/svg" xmlns:xlink="http://www.w3.org/1999/xlink" overflow="hidden"><defs><clipPath id="clip0"><rect x="1026" y="907" width="2901" height="1435"/></clipPath></defs><g clip-path="url(#clip0)" transform="translate(-1026 -907)"><rect x="1028" y="912" width="2886" height="1426" fill="#FFFFFF" fill-opacity="1"/><rect x="1689.5" y="961.5" width="220" height="1098" stroke="#2F528F" stroke-width="4.58333" stroke-linecap="butt" stroke-linejoin="miter" stroke-miterlimit="8" stroke-opacity="1" fill="#B4C7E7" fill-opacity="1"/><rect x="2167.5" y="961.5" width="220" height="1098" stroke="#2F528F" stroke-width="4.58333" stroke-linecap="butt" stroke-linejoin="miter" stroke-miterlimit="8" stroke-opacity="1" fill="#B4C7E7" fill-opacity="1"/><rect x="2644.5" y="961.5" width="220" height="1098" stroke="#2F528F" stroke-width="4.58333" stroke-linecap="butt" stroke-linejoin="miter" stroke-miterlimit="8" stroke-opacity="1" fill="#B4C7E7" fill-opacity="1"/><rect x="1210.5" y="961.5" width="220" height="1098" stroke="#2F528F" stroke-width="4.58333" stroke-linecap="butt" stroke-linejoin="miter" stroke-miterlimit="8" stroke-opacity="1" fill="#B4C7E7" fill-opacity="1"/><rect x="1243.5" y="1122.5" width="155" height="155" stroke="#000000" stroke-width="4.58333" stroke-linecap="butt" stroke-linejoin="miter" stroke-miterlimit="8" stroke-opacity="1" fill="#FFFFFF" fill-opacity="1"/><rect x="1243.5" y="1442.5" width="155" height="156" stroke="#000000" stroke-width="4.58333" stroke-linecap="butt" stroke-linejoin="miter" stroke-miterlimit="8" stroke-opacity="1" fill="#FFFFFF" fill-opacity="1"/><rect x="1243.5" y="1763.5" width="155" height="155" stroke="#000000" stroke-width="4.58333" stroke-linecap="butt" stroke-linejoin="miter" stroke-miterlimit="8" stroke-opacity="1" fill="#FFFFFF" fill-opacity="1"/><path d="M1321.15 1277 1321.15 1419.08 1318.85 1419.08 1318.85 1277ZM1333.75 1414.5 1320 1442 1306.25 1414.5Z" fill="#000000" fill-rule="nonzero" fill-opacity="1"/><path d="M1321.15 1598 1321.15 1740.08 1318.85 1740.08 1318.85 1598ZM1333.75 1735.5 1320 1763 1306.25 1735.5Z" fill="#000000" fill-rule="nonzero" fill-opacity="1"/><rect x="1721.5" y="1122.5" width="156" height="155" stroke="#000000" stroke-width="4.58333" stroke-linecap="butt" stroke-linejoin="miter" stroke-miterlimit="8" stroke-opacity="1" fill="#FFFFFF" fill-opacity="1"/><rect x="1721.5" y="1442.5" width="156" height="156" stroke="#000000" stroke-width="4.58333" stroke-linecap="butt" stroke-linejoin="miter" stroke-miterlimit="8" stroke-opacity="1" fill="#FFFFFF" fill-opacity="1"/><rect x="1721.5" y="1763.5" width="156" height="155" stroke="#000000" stroke-width="4.58333" stroke-linecap="butt" stroke-linejoin="miter" stroke-miterlimit="8" stroke-opacity="1" fill="#FFFFFF" fill-opacity="1"/><path d="M1800.15 1277 1800.15 1419.08 1797.85 1419.08 1797.85 1277ZM1812.75 1414.5 1799 1442 1785.25 1414.5Z" fill="#000000" fill-rule="nonzero" fill-opacity="1"/><path d="M1800.15 1598 1800.15 1740.08 1797.85 1740.08 1797.85 1598ZM1812.75 1735.5 1799 1763 1785.25 1735.5Z" fill="#000000" fill-rule="nonzero" fill-opacity="1"/><rect x="2200.5" y="1122.5" width="156" height="155" stroke="#000000" stroke-width="4.58333" stroke-linecap="butt" stroke-linejoin="miter" stroke-miterlimit="8" stroke-opacity="1" fill="#FFFFFF" fill-opacity="1"/><rect x="2200.5" y="1442.5" width="156" height="156" stroke="#000000" stroke-width="4.58333" stroke-linecap="butt" stroke-linejoin="miter" stroke-miterlimit="8" stroke-opacity="1" fill="#FFFFFF" fill-opacity="1"/><rect x="2200.5" y="1763.5" width="156" height="155" stroke="#000000" stroke-width="4.58333" stroke-linecap="butt" stroke-linejoin="miter" stroke-miterlimit="8" stroke-opacity="1" fill="#FFFFFF" fill-opacity="1"/><path d="M2279.15 1277 2279.15 1419.08 2276.85 1419.08 2276.85 1277ZM2291.75 1414.5 2278 1442 2264.25 1414.5Z" fill="#000000" fill-rule="nonzero" fill-opacity="1"/><path d="M2279.15 1598 2279.15 1740.08 2276.85 1740.08 2276.85 1598ZM2291.75 1735.5 2278 1763 2264.25 1735.5Z" fill="#000000" fill-rule="nonzero" fill-opacity="1"/><rect x="2679.5" y="1122.5" width="155" height="155" stroke="#000000" stroke-width="4.58333" stroke-linecap="butt" stroke-linejoin="miter" stroke-miterlimit="8" stroke-opacity="1" fill="#FFFFFF" fill-opacity="1"/><rect x="2679.5" y="1442.5" width="155" height="156" stroke="#000000" stroke-width="4.58333" stroke-linecap="butt" stroke-linejoin="miter" stroke-miterlimit="8" stroke-opacity="1" fill="#FFFFFF" fill-opacity="1"/><rect x="2679.5" y="1763.5" width="155" height="155" stroke="#000000" stroke-width="4.58333" stroke-linecap="butt" stroke-linejoin="miter" stroke-miterlimit="8" stroke-opacity="1" fill="#FFFFFF" fill-opacity="1"/><path d="M2757.15 1277 2757.15 1419.08 2754.85 1419.08 2754.85 1277ZM2769.75 1414.5 2756 1442 2742.25 1414.5Z" fill="#000000" fill-rule="nonzero" fill-opacity="1"/><path d="M2757.15 1598 2757.15 1740.08 2754.85 1740.08 2754.85 1598ZM2769.75 1735.5 2756 1763 2742.25 1735.5Z" fill="#000000" fill-rule="nonzero" fill-opacity="1"/><path d="M1084.5 1118C1084.5 1072.44 1509.83 1035.5 2034.5 1035.5 2559.17 1035.5 2984.5 1072.44 2984.5 1118 2984.5 1163.56 2559.17 1200.5 2034.5 1200.5 1509.83 1200.5 1084.5 1163.56 1084.5 1118Z" stroke="#000000" stroke-width="3.4375" stroke-linecap="butt" stroke-linejoin="round" stroke-miterlimit="10" stroke-dasharray="27.5 10.3125" stroke-opacity="1" fill="none" fill-rule="evenodd"/><path d="M1084.5 1438C1084.5 1392.44 1509.83 1355.5 2034.5 1355.5 2559.17 1355.5 2984.5 1392.44 2984.5 1438 2984.5 1483.56 2559.17 1520.5 2034.5 1520.5 1509.83 1520.5 1084.5 1483.56 1084.5 1438Z" stroke="#000000" stroke-width="3.4375" stroke-linecap="butt" stroke-linejoin="round" stroke-miterlimit="10" stroke-dasharray="27.5 10.3125" stroke-opacity="1" fill="none" fill-rule="evenodd"/><path d="M1084.5 1758C1084.5 1712.44 1509.83 1675.5 2034.5 1675.5 2559.17 1675.5 2984.5 1712.44 2984.5 1758 2984.5 1803.56 2559.17 1840.5 2034.5 1840.5 1509.83 1840.5 1084.5 1803.56 1084.5 1758Z" stroke="#000000" stroke-width="3.4375" stroke-linecap="butt" stroke-linejoin="round" stroke-miterlimit="10" stroke-dasharray="27.5 10.3125" stroke-opacity="1" fill="none" fill-rule="evenodd"/><path d="M3450.15 1155 3450.15 1297.08 3447.85 1297.08 3447.85 1155ZM3462.75 1292.5 3449 1320 3435.25 1292.5Z" fill="#000000" fill-rule="nonzero" fill-opacity="1"/><text fill="#000000" fill-opacity="1" font-family="Calibri,Calibri_MSFontService,sans-serif" font-style="normal" font-variant="normal" font-weight="400" font-stretch="normal" font-size="83" text-anchor="start" direction="ltr" writing-mode="lr-tb" unicode-bidi="normal" text-decoration="none" transform="matrix(1 0 0 1 3548.14 1248)">Pipelining</text><path d="M3387 1559 3542.48 1559" stroke="#000000" stroke-width="2.29167" stroke-linecap="butt" stroke-linejoin="miter" stroke-miterlimit="8" stroke-dasharray="18.3333 6.875" stroke-opacity="1" fill="none" fill-rule="evenodd"/><text fill="#000000" fill-opacity="1" font-family="Calibri,Calibri_MSFontService,sans-serif" font-style="normal" font-variant="normal" font-weight="400" font-stretch="normal" font-size="83" text-anchor="start" direction="ltr" writing-mode="lr-tb" unicode-bidi="normal" text-decoration="none" transform="matrix(1 0 0 1 3641.28 1585)">DDP<tspan fill="#000000" fill-opacity="1" font-family="Calibri,Calibri_MSFontService,sans-serif" font-style="normal" font-variant="normal" font-weight="400" font-stretch="normal" font-size="83" text-anchor="start" direction="ltr" writing-mode="lr-tb" unicode-bidi="normal" text-decoration="none" x="-2426.03" y="645">Pipe 0</tspan><tspan fill="#000000" fill-opacity="1" font-family="Calibri,Calibri_MSFontService,sans-serif" font-style="normal" font-variant="normal" font-weight="400" font-stretch="normal" font-size="83" text-anchor="start" direction="ltr" writing-mode="lr-tb" unicode-bidi="normal" text-decoration="none" x="-1947.32" y="645">Pipe 1</tspan><tspan fill="#000000" fill-opacity="1" font-family="Calibri,Calibri_MSFontService,sans-serif" font-style="normal" font-variant="normal" font-weight="400" font-stretch="normal" font-size="83" text-anchor="start" direction="ltr" writing-mode="lr-tb" unicode-bidi="normal" text-decoration="none" x="-1468.62" y="645">Pipe 2</tspan><tspan fill="#000000" fill-opacity="1" font-family="Calibri,Calibri_MSFontService,sans-serif" font-style="normal" font-variant="normal" font-weight="400" font-stretch="normal" font-size="83" text-anchor="start" direction="ltr" writing-mode="lr-tb" unicode-bidi="normal" text-decoration="none" x="-991.602" y="645">Pipe 3</tspan></text></g></svg>